<?xml version="1.0" encoding="UTF-8" standalone="no"?>
<!DOCTYPE svg PUBLIC "-//W3C//DTD SVG 1.1//EN"
 "http://www.w3.org/Graphics/SVG/1.1/DTD/svg11.dtd">
<!-- Generated by graphviz version 2.44.1 (20200629.0846)
 -->
<!-- Title: G Pages: 1 -->
<svg width="143pt" height="231pt"
 viewBox="0.00 0.00 142.60 231.43" xmlns="http://www.w3.org/2000/svg" xmlns:xlink="http://www.w3.org/1999/xlink">
<g id="graph0" class="graph" transform="scale(1 1) rotate(0) translate(4 227.43)">
<title>G</title><style>.edge>path:hover{stroke-width:8}</style>
<polygon fill="white" stroke="transparent" points="-4,4 -4,-227.43 138.6,-227.43 138.6,4 -4,4"/>
<!-- aioserial -->
<g id="node1" class="node">
<title>aioserial</title><style>.edge>path:hover{stroke-width:8}</style>
<ellipse fill="#ac4949" stroke="black" cx="61" cy="-18" rx="31.4" ry="18"/>
<text text-anchor="middle" x="61" y="-15.5" font-family="Helvetica,sans-Serif" font-size="10.00" fill="#ffffff">aioserial</text>
</g>
<!-- aioserial_aioserial -->
<g id="node2" class="node">
<title>aioserial_aioserial</title><style>.edge>path:hover{stroke-width:8}</style>
<ellipse fill="#c04040" stroke="black" cx="95" cy="-93.21" rx="39.7" ry="21.43"/>
<text text-anchor="middle" x="95" y="-96.21" font-family="Helvetica,sans-Serif" font-size="10.00" fill="#ffffff">aioserial.</text>
<text text-anchor="middle" x="95" y="-85.21" font-family="Helvetica,sans-Serif" font-size="10.00" fill="#ffffff">aioserial</text>
</g>
<!-- aioserial_aioserial&#45;&gt;aioserial -->
<g id="edge1" class="edge">
<title>aioserial_aioserial&#45;&gt;aioserial</title><style>.edge>path:hover{stroke-width:8}</style>
<path fill="none" stroke="black" d="M85.71,-72.21C81.78,-63.75 77.16,-53.79 72.98,-44.79"/>
<polygon fill="#c04040" stroke="black" points="76.06,-43.12 68.67,-35.52 69.71,-46.07 76.06,-43.12"/>
</g>
<!-- serial -->
<g id="node3" class="node">
<title>serial</title><style>.edge>path:hover{stroke-width:8}</style>
<ellipse fill="#33cccc" stroke="black" cx="27" cy="-205.43" rx="27" ry="18"/>
<text text-anchor="middle" x="27" y="-202.93" font-family="Helvetica,sans-Serif" font-size="10.00" fill="#000000">serial</text>
</g>
<!-- serial&#45;&gt;aioserial -->
<g id="edge2" class="edge">
<title>serial&#45;&gt;aioserial</title><style>.edge>path:hover{stroke-width:8}</style>
<path fill="none" stroke="black" d="M24.75,-187.42C23.9,-176.87 23.8,-163.14 27,-151.43"/>
<path fill="none" stroke="black" d="M27,-150.43C36.43,-115.83 36.89,-106.69 46,-72 48.24,-63.45 50.82,-54.17 53.2,-45.79"/>
<polygon fill="#33cccc" stroke="black" points="56.58,-46.72 55.97,-36.14 49.85,-44.79 56.58,-46.72"/>
</g>
<!-- serial&#45;&gt;aioserial_aioserial -->
<g id="edge3" class="edge">
<title>serial&#45;&gt;aioserial_aioserial</title><style>.edge>path:hover{stroke-width:8}</style>
<path fill="none" stroke="black" d="M27,-150.43C31.3,-134.67 43.81,-122.28 56.96,-113.2"/>
<polygon fill="#33cccc" stroke="black" points="59.04,-116.02 65.6,-107.7 55.29,-110.11 59.04,-116.02"/>
</g>
</g>
</svg>
